<svg xmlns="http://www.w3.org/2000/svg" viewBox="0 0 36 36" fill="none">
  <rect width="36" height="36" rx="8" fill="white"/>
  <path d="M27.5 18.2273C27.5 17.5182 27.4409 16.8364 27.3318 16.1818H18V20.05H23.3773C23.1409 21.3 22.4045 22.3591 21.2864 23.0682V25.5773H24.5318C26.4045 23.8364 27.5 21.2727 27.5 18.2273Z" fill="#4285F4"/>
  <path d="M18 28C20.7 28 22.9636 27.1045 24.5318 25.5773L21.2864 23.0682C20.3455 23.6682 19.1545 24.0227 18 24.0227C15.3955 24.0227 13.1909 22.2636 12.3545 19.9H8.99091V22.4909C10.5455 25.5909 14.0273 28 18 28Z" fill="#34A853"/>
  <path d="M12.3545 19.9C12.1545 19.3 12.0409 18.6591 12.0409 18C12.0409 17.3409 12.1545 16.7 12.3545 16.1V13.5091H8.99091C8.31364 14.8591 7.90909 16.3818 7.90909 18C7.90909 19.6182 8.31364 21.1409 8.99091 22.4909L12.3545 19.9Z" fill="#FBBC05"/>
  <path d="M18 11.9773C19.2682 11.9773 20.4045 12.4045 21.2864 13.2409L24.1727 10.3545C22.9591 9.21818 20.6955 8 18 8C14.0273 8 10.5455 10.4091 8.99091 13.5091L12.3545 16.1C13.1909 13.7364 15.3955 11.9773 18 11.9773Z" fill="#EA4335"/>
</svg>
