<svg xmlns="http://www.w3.org/2000/svg" viewBox="0 0 36 36" fill="none">
  <rect width="36" height="36" rx="8" fill="#0A66C2"/>
  <path d="M12.5 10C12.5 10.8284 11.8284 11.5 11 11.5C10.1716 11.5 9.5 10.8284 9.5 10C9.5 9.17157 10.1716 8.5 11 8.5C11.8284 8.5 12.5 9.17157 12.5 10Z" fill="white"/>
  <path d="M9.7 13H12.3V26H9.7V13Z" fill="white"/>
  <path d="M14.5 13H17V14.35C17.5 13.5 18.6 13 19.8 13C22.5 13 24.5 14.8 24.5 17.7V26H21.9V18.2C21.9 16.5 21.2 15.6 19.9 15.6C18.4 15.6 17.5 16.6 17.5 18.2V26H14.5V13Z" fill="white"/>
</svg>
