<svg xmlns="http://www.w3.org/2000/svg" viewBox="0 0 36 36" fill="none">
  <rect width="36" height="36" rx="8" fill="black"/>
  <path d="M23.5 11.5C22.83 11.5 22.17 11.72 21.64 12.13C21.11 12.54 20.75 13.12 20.61 13.78C20.57 13.98 20.55 14.19 20.55 14.4V21.6C20.55 22.37 20.24 23.11 19.69 23.66C19.14 24.21 18.4 24.52 17.63 24.52C16.86 24.52 16.12 24.21 15.57 23.66C15.02 23.11 14.71 22.37 14.71 21.6C14.71 20.83 15.02 20.09 15.57 19.54C16.12 18.99 16.86 18.68 17.63 18.68V15.5C15.99 15.5 14.42 16.15 13.27 17.3C12.12 18.45 11.47 20.02 11.47 21.66C11.47 23.3 12.12 24.87 13.27 26.02C14.42 27.17 15.99 27.82 17.63 27.82C19.27 27.82 20.84 27.17 21.99 26.02C23.14 24.87 23.79 23.3 23.79 21.66V17.5C24.71 18.13 25.8 18.47 26.91 18.48V15.3C25.87 15.3 24.87 14.88 24.12 14.13C23.37 13.38 22.95 12.38 22.95 11.34L23.5 11.5Z" fill="#00F2EA"/>
  <path d="M23.5 11.5C22.83 11.5 22.17 11.72 21.64 12.13C21.11 12.54 20.75 13.12 20.61 13.78C20.57 13.98 20.55 14.19 20.55 14.4V21.6C20.55 22.37 20.24 23.11 19.69 23.66C19.14 24.21 18.4 24.52 17.63 24.52C16.86 24.52 16.12 24.21 15.57 23.66C15.02 23.11 14.71 22.37 14.71 21.6C14.71 20.83 15.02 20.09 15.57 19.54C16.12 18.99 16.86 18.68 17.63 18.68V15.5C15.99 15.5 14.42 16.15 13.27 17.3C12.12 18.45 11.47 20.02 11.47 21.66C11.47 23.3 12.12 24.87 13.27 26.02C14.42 27.17 15.99 27.82 17.63 27.82C19.27 27.82 20.84 27.17 21.99 26.02C23.14 24.87 23.79 23.3 23.79 21.66V17.5C24.71 18.13 25.8 18.47 26.91 18.48V15.3C25.87 15.3 24.87 14.88 24.12 14.13C23.37 13.38 22.95 12.38 22.95 11.34L23.5 11.5Z" fill="#FF004F"/>
</svg>
